<?xml version="1.0" encoding="UTF-8"?>
<svg data-bbox="1.228 0.024 1282.642 408.889" height="409" viewBox="0 0 1285 409" width="1285" xmlns="http://www.w3.org/2000/svg" data-type="color">
    <g>
        <path d="m947.554 110.879-4.452-47.317-27.267 48.784-27.268-48.582-4.452 47.064h-12.394l8.499-84.513 35.615 63.46 35.513-63.46 8.499 84.513h-12.242z" fill="#49494b" data-color="1"/>
        <path d="m1004.82 110.879-.35-3.442c-3.44 2.986-7.895 4.707-12.954 4.707-10.775 0-19.122-7.996-19.122-18.42 0-10.426 8.246-18.421 19.375-18.421 4.806 0 8.801 1.72 12.041 4.25v-2.631c0-6.174-2.88-9.413-11.13-9.413-4.351 0-8.347.911-12.344 2.277l1.619-9.26c4.249-1.266 8.246-1.822 12.344-1.822 13.401 0 20.491 6.072 20.491 17.408v25.202l.45 9.615h-10.42zm-.45-17.308c0-5.617-4.709-9.97-10.527-9.97-5.817 0-10.421 4.353-10.421 9.97s4.553 9.869 10.421 9.869c5.869 0 10.527-4.353 10.527-9.869z" fill="#49494b" data-color="1"/>
        <path d="M1059.86 58.754v10.88c-10.77 0-16.49 5.162-16.49 16.042v25.202h-11.58V60.474l10.87-1.619v8.502c3.34-5.617 8.96-8.603 17.2-8.603z" fill="#49494b" data-color="1"/>
        <path d="M1067.3 85.221c0-15.03 12.14-26.821 27.62-26.821 4.45 0 9.06 1.012 13.41 2.986l-1.72 10.425c-3.64-2.075-7.44-3.189-11.33-3.189-9.62 0-16.5 7.338-16.5 16.6 0 9.26 6.88 16.699 16.6 16.699 4.25 0 8.14-1.366 11.78-3.44l1.72 10.424c-4.35 2.075-9.05 3.188-13.96 3.188-15.33 0-27.62-11.892-27.62-26.922z" fill="#49494b" data-color="1"/>
        <path d="M1169.44 79.705v31.174h-11.59V81.122c0-7.996-4.55-12.348-11.23-12.348-7.23 0-12.34 5.162-12.34 13.158v28.997h-11.59V29.504l11.59-1.72v37.7c3.64-4.604 9.05-7.084 15.58-7.084 11.69 0 19.58 7.996 19.58 21.305z" fill="#49494b" data-color="1"/>
        <path d="m947.554 221.453-4.452-47.317-27.267 48.785-27.268-48.582-4.452 47.064h-12.394l8.499-84.513 35.615 63.46 35.513-63.46 8.499 84.513h-12.242z" fill="#49494b" data-color="1"/>
        <path d="m1018.63 204.399 3.8 9.261c-6.33 5.718-14.32 9.058-22.921 9.058-16.037 0-27.723-11.69-27.723-26.821s11.787-26.922 27.268-26.922c12.946 0 23.266 8.501 24.836 22.671l-39.608 12.804c2.732 5.263 8.145 8.805 15.328 8.805 6.63 0 13.05-2.733 19.02-8.957zm-36.271-8.957 29.441-9.615c-2.17-4.707-6.98-7.541-12.696-7.541-9.257 0-16.391 7.439-16.694 17.206z" fill="#49494b" data-color="1"/>
        <path d="m1081.06 204.399 3.79 9.261c-6.27 5.718-14.31 9.058-22.91 9.058-16.04 0-27.73-11.69-27.73-26.821s11.79-26.922 27.27-26.922c12.95 0 23.22 8.501 24.84 22.671l-39.61 12.804c2.73 5.263 8.14 8.805 15.33 8.805 6.63 0 13.05-2.733 19.02-8.957zm-36.32-8.957 29.44-9.615c-2.18-4.707-6.98-7.541-12.7-7.541-9.26 0-16.39 7.439-16.74 17.206z" fill="#49494b" data-color="1"/>
        <path d="M1113.59 180.108V204.5c0 4.808 2.63 7.541 7.08 7.541 2.43 0 5.26-.81 6.98-1.468v10.071c-2.07.911-5.51 1.72-9.15 1.72-10.43 0-16.5-6.275-16.5-16.7v-25.556h-7.79l1.72-9.868h6.07v-10.425l11.59-6.326v16.7h14.06v9.869h-14.06z" fill="#49494b" data-color="1"/>
        <path d="M1140 151.364c0-4.099 3.34-7.338 7.53-7.338 4.2 0 7.54 3.188 7.54 7.338s-3.34 7.338-7.54 7.338c-4.19 0-7.53-3.188-7.53-7.338zm1.82 19.837 11.58-1.821v52.124h-11.58z" fill="#49494b" data-color="1"/>
        <path d="M1218.46 190.28v31.173h-11.58v-29.756c0-8.148-4.61-12.5-11.24-12.5-7.23 0-12.34 5.162-12.34 13.31v28.997h-11.58V171.1l11.13-1.72v6.629c3.79-4.453 9.41-6.984 15.93-6.984 11.89 0 19.68 7.996 19.68 21.306z" fill="#49494b" data-color="1"/>
        <path d="m1282.2 177.021-7.99-.557c4.25 3.796 6.88 9.16 6.88 15.334 0 7.895-4.1 14.676-10.62 18.572 5.61 3.644 9.15 9.616 9.15 16.852 0 11.69-9.25 21.407-23.01 21.407-11.34 0-19.94-6.883-22.21-17.055l9.05-4.807c1.17 7.439 6.07 12.247 13.16 12.247 7.08 0 12.59-5.263 12.59-12.045 0-6.781-5.36-12.145-12.7-12.145-5.05 0-8.8 2.53-11.68 5.971l-3.9-7.995c.81-.709 1.62-1.367 2.43-1.924-6.78-3.896-11.23-10.779-11.23-19.129 0-12.044 9.41-22.216 25.09-22.924l26.66-1.012-1.62 9.261zm-39.41 14.878c0 7.54 5.97 13.31 13.76 13.31 7.8 0 13.87-5.719 13.87-13.31s-5.97-13.411-13.87-13.411c-7.89 0-13.76 5.82-13.76 13.411z" fill="#49494b" data-color="1"/>
        <path d="M74.38 161.131a44.664 44.664 0 0 0 2.126-3.239c10.471-17.763 5.868-40.89-11.13-53.238-10.017-7.237-22.26-9.21-33.39-6.478-4.603 1.114-9.004 3.087-13 5.82-3.795 2.581-7.235 5.82-10.068 9.716-13.103 18.117-9.055 43.421 9.055 56.528 13.811 10.02 31.821 9.969 45.43 1.366 4.199-2.682 7.993-6.123 11.079-10.374z" fill="#00b189" data-color="2"/>
        <path d="M763.864 123.682c-22.563-15.739-41.534-20.141-63.945-28.44-19.376-7.187-18.617-18.826-12.395-24.95 10.877-10.627 31.416-6.376 40.067-2.074 8.651 4.301 14.62 11.082 15.986 12.803 3.44 4.352 8.702 3.492 11.383.354 2.479-2.884 31.871-35.12 35.16-38.714 3.288-3.593 2.681-7.995-.355-11.032-3.035-3.036-15.075-14.524-37.992-23.43-22.968-8.907-42.344-9.312-59.342-6.934-16.998 2.379-50.994 9.008-70.319 43.927-19.325 34.918-4.958 76.365 11.686 90.585 19.68 16.852 34.199 20.647 56.104 27.479 21.905 6.883 35.261 16.852 27.672 31.831-7.032 13.816-31.669 10.881-46.087 2.885-8.144-4.555-15.075-9.818-19.881-15.992-2.884-3.694-8.044-3.947-11.383-.354s-33.085 35.121-36.272 38.36c-2.631 2.682-3.339 7.338.202 10.88 5.059 5.061 15.581 17.459 40.674 27.53 20.387 8.198 42.95 10.728 68.043 8.147 30.1-3.086 60.201-24.493 69.813-47.266 17.858-42.509 3.744-79.856-18.819-95.595z" fill="#00538b" data-color="3"/>
        <path d="M493.211 2.935h-86.306c-2.58 0-3.895 1.417-3.895 4.251V259.51c0 2.581 1.315 3.897 3.895 3.897h58.987c2.58 0 3.896-1.316 3.896-3.897v-88.864h22.006c14.368 0 96.98-.709 96.98-84.614s-79.83-83.096-95.563-83.096zm-5.666 110.524h-17.757V61.234h18.465c12.496 0 35.868 0 35.868 25.252 0 25.253-25.042 26.973-36.576 26.973z" fill="#00538b" data-color="3"/>
        <path d="m192.507 42.66 4.603-11.841C65.78-6.781-13.24 23.987 18.935 103.996c3.996-2.733 8.397-4.707 13.001-5.82C-.896 28.846 69.423-.962 192.507 42.661z" fill="#00538b" data-color="3"/>
        <path d="M481.423 227.374v14.777c18.415 17.662 33.996 35.576 46.441 52.377 67.132 90.636 30.303 122.619-108.008 76.77-74.164-24.594-156.473-67.812-227.197-116.597l14.013-40.788h84.94l17.403 46.557c.455 1.873 1.669 2.834 3.541 2.834h62.882c2.833 0 4.25-1.417 4.25-4.251 0-.506-.253-1.164-.708-2.125L282.05 5.618c-.708-1.873-1.922-2.835-3.541-2.835h-55.041c-1.923 0-3.187.962-3.946 2.834l-81.297 208.549c-23.17-18.725-44.064-37.651-61.72-56.275a44.231 44.231 0 0 1-2.124 3.239 39.89 39.89 0 0 1-11.08 10.375c18.618 21.558 41.181 43.319 66.425 64.371 11.129 9.261 22.714 18.42 34.805 27.378 75.631 56.173 167.906 104.805 251.986 128.843 146.254 41.852 186.22 4.15 121.313-97.113-14.215-22.166-33.439-45.04-56.457-67.661zM249.673 87.346l23.474 68.977h-47.251z" fill="#00538b" data-color="3"/>
    </g>
</svg>
